# xmcd
#
# Track frame offsets: 
#        150
#        11217
#        24347
#        43930
#        51827
#        68097
#        83422
#        103960
#        120837
#        127462
#        143577
#        164315
#        188885
#        198942
#        213777
#        237020
#        251622
#        273287
#        288077
#
# Disc length: 4115 seconds
#
# Revision: 1
# Processed by: cddbd v1.5.2PL0 Copyright (c) Steve Scherf et al.
# Submitted via: ExactAudioCopyFreeDBPlugin 1.0
#
DISCID=07101113
DTITLE=T-Pain - Thr33 Ringz
DYEAR=2008
DGENRE=R&B
TTITLE0=Welcome To Thr33 Ringz Intro
TTITLE1=Ringleader Man
TTITLE2=Chopped N Skrewed (Feat. Ludacris)
TTITLE3=Take A Ride Skit
TTITLE4=Freeze (Feat. Chris Brown)
TTITLE5=Blowing Up (Feat. Ciara)
TTITLE6=Can't Believe It (Feat. Lil Wayne)
TTITLE7=It Ain't Me (Feat. Akon and T.I.)
TTITLE8=Feed The Lions Skit
TTITLE9=Therapy (Feat. Kanye West)
TTITLE10=Long Lap Dance
TTITLE11=Reality Show (Feat. Musiq Soulchild, Raheem DeVaughn and Jay Ly
TTITLE11=riq)
TTITLE12=Keep Going
TTITLE13=Superstar Lady (Feat. Young Cash)
TTITLE14=Change (Feat. Akon, Diddy and Mary J. Blige)
TTITLE15=Digital (Feat. Tay Dizm)
TTITLE16=Karaoke (Feat. DJ Khaled)
TTITLE17=Naked On The Danceflooor
TTITLE18=Can't Believe It (Lost In Shibuya Remix) (Feat. VERBAL(m-flo)
TTITLE18=)
EXTD=YEAR: 2008
EXTT0=
EXTT1=
EXTT2=
EXTT3=
EXTT4=
EXTT5=
EXTT6=
EXTT7=
EXTT8=
EXTT9=
EXTT10=
EXTT11=
EXTT12=
EXTT13=
EXTT14=
EXTT15=
EXTT16=
EXTT17=
EXTT18=
PLAYORDER=
